# Wavefront OBJ exported by MilkShape 3D

v -10.000000 4.578125 1.953125
v -12.015625 5.093750 -6.578125
v -17.718750 3.312499 -6.578124
v -15.468750 3.593749 2.203126
v -13.656250 -6.656250 2.093751
v -14.781250 -7.718750 -6.578125
v -7.593750 -8.500000 -6.578125
v -6.468749 -6.062500 5.968750
v -2.109375 -12.046875 2.078125
v -3.249999 -9.531250 9.953125
v -2.531250 -14.015625 -6.578125
v 2.734375 -16.750000 -6.578125
v 1.531251 -14.984375 2.218750
v 6.281250 -9.359375 2.312500
v 7.171875 -10.500000 -6.593750
v 11.375000 -4.828125 2.062500
v 8.359375 -4.406250 5.921875
v 14.250000 -8.749999 0.515624
v 9.640626 -1.437500 15.500000
v 11.859375 -2.296875 9.687499
v 15.093750 -1.468749 2.234374
v 15.796875 -2.999999 -6.593750
v 9.234375 1.984375 2.000000
v 7.890625 1.281250 9.203125
v 10.515625 2.968750 -6.593750
v 13.781250 7.968750 -6.578125
v 12.375000 6.875000 2.218750
v 9.328124 12.312500 1.484375
v 2.937500 9.296875 2.015625
v -0.218751 13.546875 2.031250
v 1.093750 10.625000 9.890625
v 0.500001 7.046875 20.765625
v 2.046875 7.093750 14.203125
v -6.734375 8.734375 7.000000
v -7.515625 10.531250 2.187500
v -7.328125 3.890625 10.906250
v -11.203125 -1.031250 7.390625
v 0.625001 -9.843750 13.640625
v -0.109374 -8.046875 21.062500
v 9.671875 -9.453125 8.812500
v 6.765625 10.453125 7.187500
v 8.828125 6.359375 9.781250
v -3.453124 4.343750 26.718750
v -8.859374 1.625000 17.171875
v -8.281249 -3.375000 19.500000
v -7.124999 0.343750 22.156250
v -5.687500 -5.437500 10.671875
v -5.406249 -5.796875 16.312500
v -4.578124 -5.562500 22.921875
v 7.531251 -8.484375 13.203125
v 6.250001 -4.937500 21.218750
v 7.343751 0.109375 21.156250
v 8.109376 5.562500 15.015625
v -12.250000 10.062499 -6.578125
v 4.750001 4.890625 26.718750
v 2.156251 3.953125 40.031250
v -6.546874 -2.140625 26.718750
v 0.109376 -7.453125 26.718750
v -0.000001 15.328125 -6.578125
v -6.406251 9.953125 -6.578125
v -12.390625 -3.515625 -6.578125
v 15.718750 -9.593749 -6.609375
v 6.828124 14.125000 -6.578125
v 3.453124 10.859375 -6.578125
v -3.374999 3.921875 40.031250
v -4.765623 -3.234375 40.031250
v -0.531248 -5.937500 40.031250
v 4.828127 0.000000 40.031250
v 0.593753 4.218750 63.484375
v -4.390622 1.218750 63.484375
v -2.265622 -3.140625 63.484375
v 3.828128 0.000000 63.484375
v -1.796871 2.781250 89.328125
v 0.000004 -2.609375 89.328125
v 0.250005 1.875000 114.234375
# 75 vertices

vt 0.000000 1.000000
# 1 texture coordinates

vn -0.727192 0.594044 0.343953
vn -0.794970 0.564591 0.221946
vn -0.669610 0.717301 0.192618
vn -0.834517 0.237625 0.497107
vn -0.753090 -0.539215 0.376966
vn -0.880253 -0.443564 0.168542
vn -0.303120 -0.934787 0.185180
vn -0.592950 -0.766506 0.246736
vn -0.692406 -0.704044 0.157782
vn -0.502643 -0.833516 0.229349
vn -0.640462 -0.747612 0.175739
vn 0.453530 -0.867003 0.206436
vn -0.106701 -0.925554 0.363270
vn 0.313031 -0.933085 0.177101
vn 0.366942 -0.917282 0.154751
vn 0.830719 -0.198611 0.520057
vn 0.857596 -0.343917 0.382427
vn 0.803920 -0.405327 0.435227
vn 0.974233 -0.088187 0.207590
vn 0.911984 -0.162984 0.376458
vn 0.938525 0.042250 0.342617
vn 0.926930 0.289776 0.238390
vn 0.930619 0.347786 0.113983
vn 0.936306 0.302170 0.178954
vn 0.976101 -0.176498 0.126790
vn 0.953855 0.285879 0.091832
vn 0.957565 -0.044955 0.284689
vn 0.598154 0.759784 0.254833
vn 0.507479 0.845174 0.167765
vn -0.090063 0.930984 0.353776
vn 0.598608 0.745912 0.292034
vn 0.203415 0.978139 0.043199
vn -0.098662 0.916332 0.388074
vn -0.608879 0.648663 0.456621
vn -0.575622 0.792395 0.201917
vn -0.667920 0.688436 0.282733
vn -0.926012 0.059836 0.372722
vn 0.026606 -0.992918 0.115787
vn -0.111892 -0.968432 0.222756
vn 0.775753 -0.572524 0.265373
vn 0.038551 0.919893 0.390271
vn 0.858791 0.421941 0.290592
vn -0.532021 0.837220 0.126557
vn -0.843503 0.467865 0.263827
vn -0.821953 -0.535490 0.194020
vn -0.832281 0.464707 0.302250
vn -0.675156 -0.731319 0.096630
vn -0.635972 -0.766243 0.091717
vn -0.573188 -0.810385 0.121374
vn 0.426101 -0.851276 0.306213
vn 0.787239 -0.538576 0.300317
vn 0.837160 0.399259 0.373840
vn 0.657784 0.640913 0.395666
vn -0.784367 0.562316 0.261857
vn 0.702509 0.680069 0.209732
vn 0.446100 0.892448 0.067309
vn -0.980286 -0.012167 0.197208
vn 0.007795 -0.993969 0.109382
vn 0.192755 0.974118 0.118070
vn -0.330236 0.938188 -0.103671
vn -0.988189 -0.080126 0.130625
vn 0.716940 -0.659522 0.225892
vn -0.060649 0.984512 0.164494
vn -0.153893 0.965642 0.209411
vn -0.677348 0.734088 0.048104
vn -0.897633 -0.432212 0.086302
vn 0.153308 -0.979176 0.133084
vn 0.991486 -0.020727 0.128549
vn 0.137702 0.988962 0.054700
vn -0.962881 0.261196 0.068098
vn -0.524549 -0.844667 0.106701
vn 0.992443 -0.070426 0.100489
vn -0.486317 0.790535 0.372224
vn 0.436636 -0.869383 0.231348
vn 0.000000 0.000000 -1.000000
# 75 normals

g collision
s 1
f 1/1/1 2/1/2 3/1/3
f 1/1/1 3/1/3 4/1/4
f 5/1/5 6/1/6 7/1/7
f 5/1/5 7/1/7 8/1/8
f 9/1/9 10/1/10 8/1/8
f 11/1/11 12/1/12 13/1/13
f 9/1/9 11/1/11 13/1/13
f 9/1/9 13/1/13 10/1/10
f 14/1/14 13/1/13 12/1/12
f 12/1/12 15/1/15 14/1/14
f 16/1/16 17/1/17 18/1/18
f 19/1/19 17/1/17 20/1/20
f 21/1/21 16/1/16 22/1/22
f 21/1/21 23/1/23 24/1/24
f 21/1/21 24/1/24 20/1/20
f 23/1/23 21/1/21 22/1/22
f 22/1/22 25/1/25 23/1/23
f 25/1/25 26/1/26 27/1/27
f 26/1/26 28/1/28 27/1/27
f 29/1/29 30/1/30 31/1/31
f 31/1/31 32/1/32 33/1/33
f 29/1/29 31/1/31 33/1/33
f 30/1/30 34/1/34 33/1/33
f 30/1/30 35/1/35 34/1/34
f 1/1/1 36/1/36 34/1/34
f 37/1/37 5/1/5 8/1/8
f 10/1/10 38/1/38 39/1/39
f 13/1/13 14/1/14 10/1/10
f 40/1/40 14/1/14 18/1/18
f 27/1/27 41/1/41 42/1/42
f 27/1/27 28/1/28 41/1/41
f 33/1/33 41/1/41 29/1/29
f 36/1/36 43/1/43 33/1/33
f 44/1/44 36/1/36 37/1/37
f 37/1/37 45/1/45 44/1/44
f 45/1/45 46/1/46 44/1/44
f 45/1/45 37/1/37 8/1/8
f 45/1/45 8/1/8 47/1/47
f 48/1/48 49/1/49 45/1/45
f 45/1/45 47/1/47 48/1/48
f 10/1/10 39/1/39 48/1/48
f 48/1/48 47/1/47 10/1/10
f 50/1/50 39/1/39 38/1/38
f 40/1/40 19/1/19 50/1/50
f 19/1/19 51/1/51 50/1/50
f 51/1/51 39/1/39 50/1/50
f 19/1/19 52/1/52 51/1/51
f 20/1/20 24/1/24 19/1/19
f 20/1/20 19/1/19 52/1/52
f 20/1/20 52/1/52 19/1/19
f 19/1/19 53/1/53 52/1/52
f 33/1/33 53/1/53 42/1/42
f 52/1/52 53/1/53 33/1/33
f 33/1/33 32/1/32 52/1/52
f 33/1/33 42/1/42 41/1/41
f 1/1/1 37/1/37 36/1/36
f 54/1/54 2/1/2 1/1/1
f 30/1/30 33/1/33 31/1/31
f 55/1/55 43/1/43 56/1/56
f 46/1/46 36/1/36 44/1/44
f 46/1/46 57/1/57 43/1/43
f 57/1/57 46/1/46 45/1/45
f 48/1/48 39/1/39 49/1/49
f 49/1/49 57/1/57 45/1/45
f 39/1/39 58/1/58 49/1/49
f 51/1/51 58/1/58 39/1/39
f 55/1/55 51/1/51 52/1/52
f 32/1/32 55/1/55 52/1/52
f 11/1/11 9/1/9 8/1/8
f 11/1/11 8/1/8 7/1/7
f 24/1/24 23/1/23 27/1/27
f 27/1/27 23/1/23 25/1/25
f 35/1/35 30/1/30 59/1/59
f 35/1/35 59/1/59 60/1/60
f 37/1/37 1/1/1 4/1/4
f 61/1/61 37/1/37 4/1/4
f 61/1/61 4/1/4 3/1/3
f 54/1/54 1/1/1 35/1/35
f 35/1/35 60/1/60 54/1/54
f 22/1/22 16/1/16 18/1/18
f 18/1/18 62/1/62 22/1/22
f 41/1/41 63/1/63 64/1/64
f 64/1/64 29/1/29 41/1/41
f 65/1/65 56/1/56 43/1/43
f 43/1/43 57/1/57 65/1/65
f 57/1/57 66/1/66 65/1/65
f 57/1/57 49/1/49 66/1/66
f 67/1/67 66/1/66 49/1/49
f 49/1/49 58/1/58 67/1/67
f 58/1/58 51/1/51 67/1/67
f 51/1/51 68/1/68 67/1/67
f 51/1/51 55/1/55 68/1/68
f 55/1/55 56/1/56 68/1/68
f 56/1/56 65/1/65 69/1/69
f 70/1/70 69/1/69 65/1/65
f 65/1/65 66/1/66 70/1/70
f 66/1/66 71/1/71 70/1/70
f 66/1/66 67/1/67 71/1/71
f 72/1/72 71/1/71 67/1/67
f 67/1/67 68/1/68 72/1/72
f 68/1/68 56/1/56 72/1/72
f 56/1/56 69/1/69 72/1/72
f 69/1/69 70/1/70 73/1/73
f 70/1/70 71/1/71 73/1/73
f 71/1/71 74/1/74 73/1/73
f 71/1/71 72/1/72 74/1/74
f 73/1/73 74/1/74 72/1/72
f 72/1/72 69/1/69 73/1/73
f 73/1/73 74/1/74 75/1/75
f 74/1/74 73/1/73 75/1/75
f 28/1/28 63/1/63 41/1/41
f 26/1/26 63/1/63 28/1/28
f 34/1/34 35/1/35 1/1/1
f 32/1/32 43/1/43 55/1/55
f 14/1/14 38/1/38 10/1/10
f 40/1/40 50/1/50 14/1/14
f 27/1/27 42/1/42 24/1/24
f 19/1/19 24/1/24 42/1/42
f 42/1/42 53/1/53 19/1/19
f 34/1/34 36/1/36 33/1/33
f 61/1/61 6/1/6 5/1/5
f 5/1/5 37/1/37 61/1/61
f 10/1/10 47/1/47 8/1/8
f 17/1/17 19/1/19 40/1/40
f 40/1/40 18/1/18 17/1/17
f 17/1/17 16/1/16 21/1/21
f 17/1/17 21/1/21 20/1/20
f 33/1/33 32/1/32 31/1/31
f 32/1/32 33/1/33 43/1/43
f 46/1/46 43/1/43 36/1/36
f 14/1/14 50/1/50 38/1/38
f 29/1/29 64/1/64 59/1/59
f 59/1/59 30/1/30 29/1/29
f 18/1/18 14/1/14 15/1/15
f 62/1/62 18/1/18 15/1/15
# 135 triangles in group

# 135 triangles total

